<?xml version="1.0" encoding="UTF-8"?>
<svg width="25px" height="25px" viewBox="0 0 25 25" version="1.1" xmlns="http://www.w3.org/2000/svg" xmlns:xlink="http://www.w3.org/1999/xlink">
    <!-- Generator: Sketch 56.2 (81672) - https://sketch.com -->
    <title>block panel copy</title>
    <desc>Created with Sketch.</desc>
    <defs>
        <linearGradient x1="106.65625%" y1="89.8066406%" x2="0%" y2="8.14941406%" id="linearGradient-1">
            <stop stop-color="#D8183A" offset="0%"></stop>
            <stop stop-color="#FF4747" offset="100%"></stop>
        </linearGradient>
    </defs>
    <g id="Page-1" stroke="none" stroke-width="1" fill="none" fill-rule="evenodd">
        <g id="block-panel-copy">
            <rect id="Rectangle" fill="url(#linearGradient-1)" x="0" y="0" width="25" height="25" rx="2"></rect>
            <g id="Shape-Copy-2" transform="translate(4.000000, 3.000000)" fill="#FFFFFF" fill-rule="nonzero">
                <g id="shop" transform="translate(0.200000, 0.000000)">
                    <path d="M11.5836754,3.3428374 C11.289108,1.49441836 9.49201408,0.100351295 7.40370009,0.100351295 C6.06068235,0.100351295 4.78519389,0.680571935 3.99216142,1.65299202 C3.83017846,1.85130682 3.87864237,2.1294948 4.10015006,2.27451738 C4.32093007,2.41901877 4.63237978,2.37615046 4.79407167,2.17757506 C5.40110754,1.4339597 6.37649818,0.98990133 7.40355455,0.98990133 C9.00068033,0.98990133 10.3746975,2.05548507 10.5999892,3.46831516 C10.6355003,3.69021405 10.8481302,3.8503513 11.0913229,3.8503513 C11.1144633,3.8503513 11.1383315,3.84878771 11.162054,3.84592114 C11.4336265,3.81113135 11.6223883,3.58584469 11.5836754,3.3428374 Z" id="Path-Copy"></path>
                    <path d="M14.8924184,6.98690183 L13.998815,5.31287876 C13.9450592,5.21194891 13.8481067,5.1503513 13.7433876,5.1503513 L12.8870468,5.1503513 C12.7226378,5.1503513 12.5892081,5.30032383 12.5892081,5.48511667 C12.5892081,5.66990952 12.7226378,5.81988205 12.8870468,5.81988205 L13.5747898,5.81988205 L14.1109518,6.82427628 L2.0568187,6.82427628 L2.59298071,5.81988205 L2.90844712,5.81988205 C3.07285617,5.81988205 3.20628581,5.66990952 3.20628581,5.48511667 C3.20628581,5.30032383 3.07285617,5.1503513 2.90844712,5.1503513 L2.42438289,5.1503513 C2.31966375,5.1503513 2.22271128,5.21194891 2.16895545,5.31287876 L1.27535211,6.98690183 C1.22011277,7.09047998 1.21880378,7.21926608 1.27159968,7.32421743 C1.32439558,7.42916878 1.42335517,7.4941013 1.53077955,7.4941013 L14.6369909,7.4941013 C14.7444153,7.4941013 14.8432876,7.42916878 14.8961708,7.32421743 C14.949054,7.21926608 14.9476577,7.09028381 14.8924184,6.98690183 Z" id="Path"></path>
                    <path d="M15.0690898,7.04585027 C15.0610136,6.90306417 14.9323097,6.7909763 14.7761124,6.7909763 L1.87247582,6.7909763 C1.71627847,6.7909763 1.58757461,6.90298546 1.57949839,7.04585027 L0.992942123,17.5241776 C0.988818101,17.5976959 1.01785809,17.66964 1.07318873,17.7230077 C1.12860528,17.7762966 1.20541519,17.8066013 1.28583363,17.8066013 L15.3624968,17.8066013 C15.4428293,17.8066013 15.5197252,17.7763754 15.5753995,17.7230077 C15.6306442,17.66964 15.6596842,17.5977747 15.6556461,17.5241776 L15.0690898,7.04585027 Z M1.93858561,16.8886325 L2.41405497,7.24996067 L14.2203462,7.24996067 L14.7099876,16.8886325 L1.93858561,16.8886325 Z" id="Shape"></path>
                    <path d="M10.3675558,9.1347263 C9.83730117,9.1347263 9.40601737,9.555228 9.40601737,10.0722263 C9.40601737,10.5892246 9.83730117,11.0097263 10.3675558,11.0097263 C10.8978105,11.0097263 11.3290943,10.5892246 11.3290943,10.0722263 C11.3290943,9.555228 10.8978105,9.1347263 10.3675558,9.1347263 Z M10.3675558,10.3847873 C10.1907417,10.3847873 10.0470743,10.2446201 10.0470743,10.0723178 C10.0470743,9.9000156 10.1908356,9.75984837 10.3675558,9.75984837 C10.5442761,9.75984837 10.6880374,9.9000156 10.6880374,10.0723178 C10.6880374,10.2446201 10.5442761,10.3847873 10.3675558,10.3847873 Z" id="Shape"></path>
                    <path d="M6.28101737,9.1347263 C5.75076271,9.1347263 5.31947891,9.555228 5.31947891,10.0722263 C5.31947891,10.5892246 5.75076271,11.0097263 6.28101737,11.0097263 C6.81127203,11.0097263 7.24255583,10.5892246 7.24255583,10.0722263 C7.24255583,9.555228 6.81127203,9.1347263 6.28101737,9.1347263 Z M6.28101737,10.3847873 C6.10429712,10.3847873 5.96053585,10.2446201 5.96053585,10.0723178 C5.96053585,9.9000156 6.10429712,9.75984837 6.28101737,9.75984837 C6.45773762,9.75984837 6.60149889,9.9000156 6.60149889,10.0723178 C6.60149889,10.2446201 6.45773762,10.3847873 6.28101737,10.3847873 Z" id="Shape"></path>
                    <path d="M11.0038961,10.3066013 L10.9788368,10.3066013 C10.7993251,10.3066013 10.6536386,10.4535846 10.6536386,10.6346943 C10.6536386,10.679491 10.6624046,10.722269 10.6786979,10.7612018 L10.6786979,12.4393497 C10.6786979,13.6153125 9.73035391,14.5721943 8.56467122,14.5721943 C7.39898852,14.5721943 6.45064458,13.6154087 6.45064458,12.4393497 L6.45064458,10.6347904 C6.45064458,10.4536808 6.30495806,10.3066974 6.12544636,10.3066974 C5.94593465,10.3066974 5.80024814,10.4536808 5.80024814,10.6347904 L5.80024814,12.4394458 C5.80024814,13.9773395 7.04034624,15.2284763 8.56467122,15.2284763 C10.0889962,15.2284763 11.3290943,13.9773395 11.3290943,12.4394458 L11.3290943,10.6347904 C11.3290943,10.4536808 11.1834078,10.3066013 11.0038961,10.3066013 Z" id="Path"></path>
                </g>
            </g>
        </g>
    </g>
</svg>