<?xml version="1.0" encoding="UTF-8"?>
<svg width="324px" height="64px" viewBox="0 0 324 64" version="1.1" xmlns="http://www.w3.org/2000/svg" xmlns:xlink="http://www.w3.org/1999/xlink">
    <!-- Generator: Sketch 56.2 (81672) - https://sketch.com -->
    <title>option panel logo copy</title>
    <desc>Created with Sketch.</desc>
    <g id="Page-1" stroke="none" stroke-width="1" fill="none" fill-rule="evenodd">
        <g id="option-panel-logo-copy">
            <g id="Group-6">
                <rect id="Rectangle" fill="#FF4747" x="0" y="0" width="64" height="64" rx="4"></rect>
                <g id="shop" transform="translate(16.000000, 12.000000)" fill="#FFFFFF" fill-rule="nonzero">
                    <path d="M24.7382199,6.91730368 C24.0489322,2.97400973 19.8437323,0 14.9570776,0 C11.8144161,0 8.82977307,1.23780403 6.97407708,3.31230021 C6.59503696,3.73537179 6.70844249,4.32883947 7.2267705,4.63822099 C7.74339572,4.94649062 8.47218805,4.85503822 8.85054706,4.4314107 C10.271011,2.84503127 12.5534251,1.89770674 14.956737,1.89770674 C18.6940113,1.89770674 21.9092115,4.17095205 22.436394,7.18498958 C22.5194899,7.65837387 23.017044,8 23.586115,8 C23.6402636,8 23.696115,7.99666435 23.7516258,7.99054899 C24.3871054,7.91633079 24.8288081,7.43571925 24.7382199,6.91730368 Z" id="Path-Copy"></path>
                    <path d="M31.6539697,13.7015694 L29.6322314,9.41607031 C29.5106112,9.15768989 29.2912604,9 29.054338,9 L27.1169045,9 C26.7449363,9 26.4430576,9.38392969 26.4430576,9.85699937 C26.4430576,10.3300691 26.7449363,10.7139987 27.1169045,10.7139987 L28.6728928,10.7139987 L29.8859358,13.285248 L2.61398842,13.285248 L3.82703144,10.7139987 L4.54076036,10.7139987 C4.91272863,10.7139987 5.21460734,10.3300691 5.21460734,9.85699937 C5.21460734,9.38392969 4.91272863,9 4.54076036,9 L3.44558627,9 C3.20866381,9 2.98931309,9.15768989 2.86769289,9.41607031 L0.845954534,13.7015694 C0.720977934,13.9667294 0.718016404,14.2964218 0.837464813,14.5650973 C0.956913222,14.8337728 1.18080495,15 1.42384791,15 L31.0760763,15 C31.3191193,15 31.5428136,14.8337728 31.6624594,14.5650973 C31.7821053,14.2964218 31.7789463,13.9662272 31.6539697,13.7015694 Z" id="Path"></path>
                    <path d="M31.4691508,14.5784374 C31.4515262,14.2543838 31.1706564,14 30.8297877,14 L2.67024507,14 C2.32937636,14 2.04850654,14.2542052 2.03088187,14.5784374 L0.750843003,38.3590385 C0.74184317,38.5258886 0.805217,38.6891658 0.92596477,38.810284 C1.04690004,38.9312235 1.21452194,39 1.3900187,39 L32.1094515,39 C32.2847608,39 32.4525702,38.9314021 32.5740679,38.810284 C32.6946282,38.6891658 32.758002,38.5260672 32.7491897,38.3590385 L31.4691508,14.5784374 Z M2.81451613,36.9166667 L3.85213057,15.0416667 L29.6169419,15.0416667 L30.6854839,36.9166667 L2.81451613,36.9166667 Z" id="Shape"></path>
                    <path d="M20.25,18 C18.8713379,18 17.75,19.1213379 17.75,20.5 C17.75,21.8786621 18.8713379,23 20.25,23 C21.6286621,23 22.75,21.8786621 22.75,20.5 C22.75,19.1213379 21.6286621,18 20.25,18 Z M20.25,21.3334961 C19.7902832,21.3334961 19.416748,20.9597168 19.416748,20.5002441 C19.416748,20.0407715 19.7905273,19.6669922 20.25,19.6669922 C20.7094727,19.6669922 21.083252,20.0407715 21.083252,20.5002441 C21.083252,20.9597168 20.7094727,21.3334961 20.25,21.3334961 Z" id="Shape"></path>
                    <path d="M12.25,18 C10.8713379,18 9.75,19.1213379 9.75,20.5 C9.75,21.8786621 10.8713379,23 12.25,23 C13.6286621,23 14.75,21.8786621 14.75,20.5 C14.75,19.1213379 13.6286621,18 12.25,18 Z M12.25,21.3334961 C11.7905273,21.3334961 11.416748,20.9597168 11.416748,20.5002441 C11.416748,20.0407715 11.7905273,19.6669922 12.25,19.6669922 C12.7094727,19.6669922 13.083252,20.0407715 13.083252,20.5002441 C13.083252,20.9597168 12.7094727,21.3334961 12.25,21.3334961 Z" id="Shape"></path>
                    <path d="M22.0441785,21 L21.9897891,21 C21.6001706,21 21.2839675,21.3284961 21.2839675,21.7332617 C21.2839675,21.8333789 21.3029935,21.9289844 21.3383569,22.0159961 L21.3383569,25.7665234 C21.3383569,28.394707 19.2800383,30.5332617 16.75,30.5332617 C14.2199617,30.5332617 12.1616431,28.3949219 12.1616431,25.7665234 L12.1616431,21.7334766 C12.1616431,21.3287109 11.84544,21.0002148 11.4558215,21.0002148 C11.0662031,21.0002148 10.75,21.3287109 10.75,21.7334766 L10.75,25.7667383 C10.75,29.2038086 13.4415521,32 16.75,32 C20.0584479,32 22.75,29.2038086 22.75,25.7667383 L22.75,21.7334766 C22.75,21.3287109 22.4337969,21 22.0441785,21 Z" id="Path"></path>
                </g>
            </g>
            <text id="Product-Blocks" font-family="Avenir-Medium, Avenir" font-size="36" font-weight="400" fill="#151515">
                <tspan x="85" y="44">Product </tspan>
                <tspan x="223.096" y="44" font-family="Avenir-Light, Avenir" font-weight="300">Blocks</tspan>
            </text>
        </g>
    </g>
</svg>