<?xml version="1.0" encoding="UTF-8"?>
<svg width="18px" height="18px" viewBox="0 0 18 18" version="1.1" xmlns="http://www.w3.org/2000/svg" xmlns:xlink="http://www.w3.org/1999/xlink">
    <!-- Generator: Sketch 56.2 (81672) - https://sketch.com -->
    <title>panel menu</title>
    <desc>Created with Sketch.</desc>
    <g id="Page-1" stroke="none" stroke-width="1" fill="none" fill-rule="evenodd">
        <g id="panel-menu">
            <g id="Rectangle-2-Copy-11">
                <rect id="Rectangle" fill="#FFFFFF" x="0" y="0" width="18" height="18" rx="1"></rect>
                <g id="logo1-copy-5" transform="translate(3.796875, 2.796875)" fill="#000000" fill-rule="nonzero">
                    <g id="content-writing">
                        <g id="Shape-Copy-2">
                            <g id="shop" transform="translate(0.984375, 0.703125)">
                                <path d="M6.60642997,1.94549166 C6.43410804,0.836440236 5.38280808,0 4.16114439,0 C3.37547901,0 2.62931827,0.348132384 2.16539427,0.931584434 C2.07063424,1.05057331 2.09898562,1.2174861 2.22856762,1.30449965 C2.35772393,1.39120049 2.53992201,1.3654795 2.63451176,1.24633426 C2.98962775,0.800165045 3.56023128,0.533730021 4.16105925,0.533730021 C5.09537783,0.533730021 5.89917788,1.17308026 6.0309735,2.02077832 C6.05174749,2.15391765 6.17613599,2.25 6.31840375,2.25 C6.33194089,2.25 6.34590374,2.24906185 6.35978144,2.2473419 C6.51865136,2.22646803 6.62907702,2.09129604 6.60642997,1.94549166 Z" id="Path-Copy"></path>
                                <path d="M8.13141959,3.35193032 L7.60866164,2.34751648 C7.57721448,2.28695857 7.52049728,2.25 7.45923659,2.25 L6.95827723,2.25 C6.86209794,2.25 6.7840416,2.33998352 6.7840416,2.45085923 C6.7840416,2.56173493 6.86209794,2.65171846 6.95827723,2.65171846 L7.36060686,2.65171846 L7.67426163,3.25435499 L0.622593781,3.25435499 L0.936248553,2.65171846 L1.1207964,2.65171846 C1.2169757,2.65171846 1.29503204,2.56173493 1.29503204,2.45085923 C1.29503204,2.33998352 1.2169757,2.25 1.1207964,2.25 L0.837618829,2.25 C0.776358132,2.25 0.719640936,2.28695857 0.688193778,2.34751648 L0.165435825,3.35193032 C0.133120807,3.41407721 0.132355048,3.49134887 0.16324065,3.55431968 C0.194126251,3.61729049 0.252017611,3.65625 0.314860876,3.65625 L7.98199454,3.65625 C8.0448378,3.65625 8.10267811,3.61729049 8.13361477,3.55431968 C8.16455142,3.49134887 8.16373461,3.41395951 8.13141959,3.35193032 Z" id="Path"></path>
                                <path d="M8.23477237,3.41947497 C8.23004779,3.31577783 8.15475603,3.234375 8.06338058,3.234375 L0.514753194,3.234375 C0.423377745,3.234375 0.348085983,3.31572066 0.3433614,3.41947497 L0.000225980907,11.0292673 C-0.00218657221,11.0826593 0.0148018226,11.1349081 0.0471702436,11.1736659 C0.079588926,11.2123665 0.124522728,11.234375 0.171567513,11.234375 L8.40641547,11.234375 C8.45341,11.234375 8.49839406,11.2124237 8.53096353,11.1736659 C8.56328169,11.1349081 8.58027008,11.0827165 8.57790779,11.0292673 L8.23477237,3.41947497 Z M0.553427419,10.5097656 L0.831576995,3.50976562 L7.73825738,3.50976562 L8.02469758,10.5097656 L0.553427419,10.5097656 Z" id="Shape"></path>
                                <g id="Group-5" transform="translate(2.531250, 4.900000)">
                                    <path d="M2.953125,-5.77315973e-15 C2.64292603,-5.77315973e-15 2.390625,0.252301025 2.390625,0.5625 C2.390625,0.872698975 2.64292603,1.125 2.953125,1.125 C3.26332397,1.125 3.515625,0.872698975 3.515625,0.5625 C3.515625,0.252301025 3.26332397,-5.77315973e-15 2.953125,-5.77315973e-15 Z M2.953125,0.750036621 C2.84968872,0.750036621 2.76564331,0.665936279 2.76564331,0.562554932 C2.76564331,0.459173584 2.84974365,0.375073242 2.953125,0.375073242 C3.05650635,0.375073242 3.14060669,0.459173584 3.14060669,0.562554932 C3.14060669,0.665936279 3.05650635,0.750036621 2.953125,0.750036621 Z" id="Shape"></path>
                                    <path d="M0.5625,-5.77315973e-15 C0.252301025,-5.77315973e-15 -4.4408921e-16,0.252301025 -4.4408921e-16,0.5625 C-4.4408921e-16,0.872698975 0.252301025,1.125 0.5625,1.125 C0.872698975,1.125 1.125,0.872698975 1.125,0.5625 C1.125,0.252301025 0.872698975,-5.77315973e-15 0.5625,-5.77315973e-15 Z M0.5625,0.750036621 C0.459118652,0.750036621 0.375018311,0.665936279 0.375018311,0.562554932 C0.375018311,0.459173584 0.459118652,0.375073242 0.5625,0.375073242 C0.665881348,0.375073242 0.749981689,0.459173584 0.749981689,0.562554932 C0.749981689,0.665936279 0.665881348,0.750036621 0.5625,0.750036621 Z" id="Shape"></path>
                                    <path d="M3.32538404,0.703125 L3.3107244,0.703125 C3.20571005,0.703125 3.12048344,0.807646484 3.12048344,0.936435547 C3.12048344,0.968291016 3.12561153,0.998710937 3.13514308,1.02639648 L3.13514308,2.21974609 C3.13514308,3.05598633 2.58036187,3.73643555 1.8984375,3.73643555 C1.21651313,3.73643555 0.661731918,3.05605469 0.661731918,2.21974609 L0.661731918,0.936503906 C0.661731918,0.807714844 0.576505306,0.703193359 0.471490959,0.703193359 C0.366476612,0.703193359 0.28125,0.807714844 0.28125,0.936503906 L0.28125,2.21981445 C0.28125,3.31342773 1.00670739,4.203125 1.8984375,4.203125 C2.79016761,4.203125 3.515625,3.31342773 3.515625,2.21981445 L3.515625,0.936503906 C3.515625,0.807714844 3.43039839,0.703125 3.32538404,0.703125 Z" id="Path"></path>
                                </g>
                            </g>
                        </g>
                    </g>
                </g>
            </g>
        </g>
    </g>
</svg>